<?xml version="1.0" encoding="UTF-8"?>
<svg version="1.1" xmlns="http://www.w3.org/2000/svg" width="512" height="512">
<path d="M0 0 C4.07371199 0.00914608 8.14735849 -0.00496601 12.22105694 -0.01591969 C20.17765482 -0.03360871 28.13410087 -0.02990815 36.09070444 -0.01826912 C42.56324498 -0.00919692 49.03574329 -0.00802708 55.50828838 -0.01236439 C56.8956167 -0.01328379 56.8956167 -0.01328379 58.31097186 -0.01422176 C60.19047309 -0.01550079 62.06997432 -0.01679765 63.94947553 -0.01811212 C81.53031666 -0.02948975 99.11107405 -0.0164486 116.69190145 0.00508934 C131.74277919 0.02295775 146.79353347 0.01985285 161.84440899 0.0014143 C179.36683906 -0.02004238 196.88919593 -0.02839137 214.41163731 -0.01613665 C216.28382014 -0.01486259 218.15600299 -0.0136051 220.02818584 -0.01236439 C220.9490843 -0.01174729 221.86998275 -0.01113018 222.81878722 -0.01049438 C229.27568975 -0.00705584 235.73254545 -0.01283737 242.18944073 -0.0222826 C250.06951944 -0.03355746 257.949439 -0.03034815 265.82949972 -0.00915962 C269.84197168 0.00127756 273.8541793 0.0055997 277.86664867 -0.00775623 C309.72328262 -0.10471402 337.99599089 4.32507475 361.76823711 27.52289867 C362.61386211 28.32727367 363.45948711 29.13164867 364.33073711 29.96039867 C365.53729961 31.22883617 365.53729961 31.22883617 366.76823711 32.52289867 C367.76597149 33.52836742 367.76597149 33.52836742 368.78386211 34.55414867 C391.33652473 58.18074761 394.3945222 87.69469143 394.29113579 118.75466156 C394.2819897 122.82837355 394.2961018 126.90202005 394.30705547 130.9757185 C394.3247445 138.93231638 394.32104394 146.88876243 394.30940491 154.845366 C394.30033271 161.31790654 394.29916287 167.79040485 394.30350018 174.26294994 C394.30411311 175.18783549 394.30472604 176.11272104 394.30535755 177.06563342 C394.30663658 178.94513465 394.30793344 180.82463588 394.30924791 182.70413709 C394.32062553 200.28497822 394.30758439 217.86573561 394.28604645 235.44656301 C394.26817804 250.49744075 394.27128294 265.54819503 394.28972149 280.59907055 C394.31117816 298.12150062 394.31952716 315.64385749 394.30727243 333.16629887 C394.30599838 335.0384817 394.30474089 336.91066455 394.30350018 338.7828474 C394.30288307 339.70374586 394.30226597 340.62464431 394.30163017 341.57344878 C394.29819163 348.03035131 394.30397316 354.48720701 394.31341839 360.94410229 C394.32469325 368.824181 394.32148393 376.70410056 394.30029541 384.58416128 C394.28985823 388.59663324 394.28553609 392.60884086 394.29889202 396.62131023 C394.3958498 428.47794418 389.96606104 456.75065245 366.76823711 480.52289867 C365.96386211 481.36852367 365.15948711 482.21414867 364.33073711 483.08539867 C363.48511211 483.88977367 362.63948711 484.69414867 361.76823711 485.52289867 C361.09792461 486.18805492 360.42761211 486.85321117 359.73698711 487.53852367 C336.11038818 510.09118629 306.59644436 513.14918376 275.53647423 513.04579735 C271.46276224 513.03665126 267.38911574 513.05076336 263.31541729 513.06171703 C255.35881941 513.07940606 247.40237336 513.0757055 239.44576979 513.06406647 C232.97322924 513.05499427 226.50073094 513.05382443 220.02818584 513.05816174 C218.64085753 513.05908113 218.64085753 513.05908113 217.22550237 513.06001911 C215.34600114 513.06129814 213.46649991 513.062595 211.5869987 513.06390947 C194.00615757 513.07528709 176.42540018 513.06224595 158.84457278 513.04070801 C143.79369504 513.0228396 128.74294075 513.0259445 113.69206524 513.04438305 C96.16963517 513.06583972 78.6472783 513.07418872 61.12483692 513.06193399 C59.25265409 513.06065994 57.38047124 513.05940245 55.50828838 513.05816174 C54.58738993 513.05754463 53.66649148 513.05692753 52.71768701 513.05629173 C46.26078448 513.05285319 39.80392878 513.05863472 33.3470335 513.06807995 C25.46695479 513.07935481 17.58703523 513.07614549 9.70697451 513.05495697 C5.69450255 513.04451979 1.68229493 513.04019765 -2.33017445 513.05355358 C-34.18680839 513.15051136 -62.45951666 508.7207226 -86.23176289 485.52289867 C-87.50020039 484.31633617 -87.50020039 484.31633617 -88.79426289 483.08539867 C-89.59863789 482.23977367 -90.40301289 481.39414867 -91.23176289 480.52289867 C-91.89691914 479.85258617 -92.56207539 479.18227367 -93.24738789 478.49164867 C-115.8000505 454.86504974 -118.85804797 425.35110592 -118.75466156 394.29113579 C-118.74551548 390.2174238 -118.75962757 386.1437773 -118.77058125 382.07007885 C-118.78827027 374.11348097 -118.78456971 366.15703492 -118.77293068 358.20043135 C-118.76385848 351.7278908 -118.76268864 345.2553925 -118.76702595 338.7828474 C-118.76763888 337.85796186 -118.76825181 336.93307631 -118.76888332 335.98016393 C-118.77016235 334.1006627 -118.77145921 332.22116147 -118.77277368 330.34166026 C-118.78415131 312.76081913 -118.77111016 295.18006174 -118.74957222 277.59923434 C-118.73170381 262.5483566 -118.73480871 247.49760231 -118.75324726 232.4467268 C-118.77470394 214.92429673 -118.78305293 197.40193986 -118.77079821 179.87949848 C-118.76952415 178.00731565 -118.76826666 176.1351328 -118.76702595 174.26294994 C-118.76640885 173.34205149 -118.76579174 172.42115304 -118.76515594 171.47234857 C-118.7617174 165.01544604 -118.76749893 158.55859034 -118.77694416 152.10169506 C-118.78821902 144.22161635 -118.78500971 136.34169679 -118.76382118 128.46163607 C-118.753384 124.44916411 -118.74906186 120.43695649 -118.76241779 116.42448711 C-118.85937558 84.56785317 -114.42958681 56.2951449 -91.23176289 32.52289867 C-90.42738789 31.67727367 -89.62301289 30.83164867 -88.79426289 29.96039867 C-87.94863789 29.15602367 -87.10301289 28.35164867 -86.23176289 27.52289867 C-85.56145039 26.85774242 -84.89113789 26.19258617 -84.20051289 25.50727367 C-60.57391395 2.95461106 -31.05997013 -0.10338641 0 0 Z " fill="#000000" transform="translate(118.23176288604736,-0.5228986740112305)"/>
<path d="M0 0 C0.65255264 -0.0049649 1.30510529 -0.00992981 1.97743225 -0.01504517 C4.13877422 -0.02965772 6.30004249 -0.03647168 8.46142578 -0.04199219 C9.57483023 -0.04623325 9.57483023 -0.04623325 10.71072769 -0.05056 C14.64846401 -0.06555894 18.58616372 -0.07478043 22.52392578 -0.07910156 C26.5594402 -0.08454855 30.59461074 -0.10849348 34.63001823 -0.13707352 C37.75821846 -0.15587425 40.88633931 -0.16091493 44.01459122 -0.16243744 C45.49988789 -0.16543175 46.98518428 -0.17334881 48.47042465 -0.18662262 C71.68437235 -0.37906464 91.90156929 6.87527481 108.67236328 23.14160156 C129.49508669 44.4033583 131.2196493 70.0451724 131.05322266 98.05688477 C131.03025299 101.96716237 131.04371361 105.87635212 131.06751251 109.78659153 C131.08201314 112.82970799 131.07734829 115.87256885 131.06700134 118.91569328 C131.06435521 120.35765657 131.06752843 121.79964392 131.07691956 123.24157906 C131.12291557 132.26982742 131.06430307 139.4345672 124.52392578 146.25488281 C119.73821636 149.4335828 115.84167368 151.13798197 110.02392578 150.73925781 C103.88594207 149.31539952 99.84669612 146.17093851 96.43554688 140.95727539 C93.71263514 135.33488139 93.99428505 129.56631344 94.04588318 123.42857933 C94.06333647 121.28636482 94.05553551 119.14547749 94.04162598 117.00325012 C94.01216514 111.68383435 94.02510503 106.36468218 94.0368042 101.04522705 C94.04506547 96.54235764 94.03683591 92.04007386 94.00767517 87.53728676 C94.00067087 85.44611406 94.01714227 83.3560253 94.03479004 81.26493835 C93.96850524 68.65891265 90.8167916 58.77771255 82.53173828 49.16113281 C73.40745287 40.15967432 62.69411149 36.52080588 50.03535461 36.59608459 C49.00050147 36.61320842 49.00050147 36.61320842 47.9447422 36.63067818 C45.74380801 36.6659602 43.544863 36.66806456 41.34367371 36.66233826 C35.88629523 36.65412103 30.42959792 36.69552562 24.97247314 36.74523926 C20.33689189 36.78657611 15.70249945 36.80388922 11.06674767 36.78788567 C8.91397774 36.78998998 6.76366607 36.82692763 4.61128235 36.86512756 C-3.48212238 36.90478891 -9.52515443 36.04313512 -15.46826172 30.16113281 C-18.88116358 25.53561417 -20.14793839 21.078371 -19.85107422 15.32910156 C-18.70061976 8.81377273 -14.64977294 4.90946008 -9.46826172 1.16113281 C-6.10647839 0.04053837 -3.54379764 0.02050763 0 0 Z " fill="#FDFDFD" transform="translate(317.46826171875,63.8388671875)"/>
<path d="M0 0 C4.56586933 4.80617824 6.24545773 8.55133408 6.27124023 15.15454102 C6.28142685 16.40006241 6.29161346 17.6455838 6.30210876 18.92884827 C6.30304976 19.592278 6.30399075 20.25570774 6.30496025 20.93924141 C6.30864051 23.03047882 6.32541622 25.12124889 6.34571838 27.21238708 C6.40094022 33.15688306 6.43163677 39.10144973 6.45629883 45.04614258 C6.47231575 48.68841274 6.5026887 52.33035654 6.54106331 55.97245598 C6.55260021 57.35049875 6.55864265 58.7286003 6.55874443 60.10669136 C6.56005437 73.13489608 8.34696969 86.41238751 17.4140625 96.49609375 C28.82091256 107.31293432 41.71666444 109.60093972 56.98828125 109.46875 C58.38544168 109.4735932 59.78259574 109.48076233 61.17973328 109.4901123 C65.5574208 109.51514841 69.9347704 109.50999784 74.3125 109.5 C79.41109851 109.48840688 84.50902018 109.48978928 89.60753441 109.52406311 C91.62811954 109.53108438 93.64874295 109.51430338 95.66926575 109.49694824 C102.92549809 109.53682624 107.87178169 109.99331798 114 114 C117.72635297 117.92247681 120.27620711 121.75711551 120.375 127.25 C120.23641581 132.20642282 118.98147548 136.02181033 116 140 C110.92609092 144.64723946 106.61342404 146.11996099 99.73120117 146.16113281 C98.43522507 146.17074036 97.13924896 146.1803479 95.80400085 146.19024658 C94.38365862 146.19509905 92.96331433 146.19937677 91.54296875 146.203125 C90.82401239 146.20595238 90.10505604 146.20877975 89.36431313 146.21169281 C85.54861712 146.22669333 81.7329589 146.23591324 77.91723633 146.24023438 C74.01185136 146.24567503 70.10682287 146.26960563 66.20154858 146.29820633 C63.17024308 146.31703532 60.13901928 146.32204925 57.10766029 146.32357025 C55.67063797 146.32655938 54.23361575 146.33445793 52.79665184 146.34775543 C29.50029777 146.5476864 8.99224993 139.16278166 -8 123 C-23.99749975 106.02328231 -30.67727397 85.48183935 -30.53125 62.46875 C-30.5339545 60.9375382 -30.53784481 59.40632809 -30.54284668 57.87512207 C-30.54868263 54.69847933 -30.54036342 51.52229216 -30.52148438 48.34570312 C-30.49854049 44.28955204 -30.51195117 40.23445107 -30.53577423 36.1783371 C-30.55026074 33.02974589 -30.54561598 29.88140219 -30.53526306 26.73280334 C-30.5326117 25.23698295 -30.53580902 23.74113945 -30.54518127 22.24534607 C-30.58826482 13.4521504 -30.54053434 7.06269579 -24.4375 0.2578125 C-16.67010827 -5.8632299 -8.05533564 -5.53133047 0 0 Z " fill="#FDFDFD" transform="translate(94,302)"/>
<path d="M0 0 C1.06486539 -0.00611329 1.06486539 -0.00611329 2.15124321 -0.01235008 C5.90168832 -0.03307063 9.65209826 -0.04743788 13.40258789 -0.05688477 C17.25468621 -0.06798357 21.10621246 -0.10246281 24.95810795 -0.14205647 C27.94283568 -0.16828309 30.92742725 -0.17658138 33.91226006 -0.18016624 C35.33193307 -0.18500828 36.75160099 -0.19655363 38.17115974 -0.21520424 C46.17441334 -0.31391265 52.18684335 -0.24866551 58.96484375 4.23828125 C62.69119672 8.16075806 65.24105086 11.99539676 65.33984375 17.48828125 C65.20125956 22.44470407 63.94631923 26.26009158 60.96484375 30.23828125 C55.87365984 34.90134288 51.57107336 36.36146922 44.66430664 36.36425781 C42.71065941 36.36996796 42.71065941 36.36996796 40.71754456 36.37579346 C40.02083712 36.37598732 39.32412968 36.37618118 38.60630989 36.37638092 C35.66031337 36.37981119 32.7145346 36.40120357 29.76861477 36.42161179 C24.28931915 36.45949672 18.81025222 36.49091172 13.33081055 36.48876953 C9.51445623 36.48797556 5.69889594 36.51164017 1.88274956 36.55065155 C0.43854799 36.56101619 -1.00574633 36.56270695 -2.44996452 36.55500031 C-16.00448228 36.4899516 -27.06327993 39.70255061 -37.03515625 49.23828125 C-44.17033322 57.04387753 -48.1447716 66.0690721 -48.17700195 76.62402344 C-48.18403641 77.91926941 -48.19107086 79.21451538 -48.19831848 80.54901123 C-48.20104232 81.58385777 -48.20104232 81.58385777 -48.20382118 82.63961029 C-48.21101905 84.80974325 -48.22671105 86.97965431 -48.24516296 89.14971924 C-48.2974695 95.31853146 -48.34556523 101.48722087 -48.36108398 107.65625 C-48.37121033 111.43476311 -48.40065056 115.21271455 -48.44240379 118.99100494 C-48.45465232 120.42455024 -48.45984636 121.85817507 -48.45760536 123.29177094 C-48.44696434 132.32227903 -48.49981063 139.50881578 -55.04296875 146.33203125 C-59.82867818 149.51073124 -63.72522085 151.2151304 -69.54296875 150.81640625 C-75.68480697 149.39165381 -79.72612643 146.2475253 -83.12963867 141.0234375 C-86.10930715 134.86777183 -85.59092574 128.27225278 -85.53125 121.58203125 C-85.5314054 120.15205817 -85.53290105 118.72208468 -85.53565979 117.29211426 C-85.5370396 114.29969574 -85.52456944 111.30775883 -85.50170898 108.31542969 C-85.47353198 104.52799544 -85.47601054 100.7413726 -85.4887991 96.95388031 C-85.49584886 93.99879353 -85.48785957 91.04388534 -85.47554207 88.08882141 C-85.47110233 86.69534497 -85.47062328 85.30184879 -85.47460747 83.90837097 C-85.51085351 60.05215061 -79.04517249 40.26146524 -62.5 22.61328125 C-44.41649577 5.18892218 -24.43685397 0.11944782 0 0 Z " fill="#FDFDFD" transform="translate(149.03515625,63.76171875)"/>
<path d="M0 0 C4.66599225 4.91157079 6.24941721 8.66917736 6.25878906 15.4140625 C6.26509338 16.71641846 6.27139771 18.01877441 6.27789307 19.3605957 C6.27431016 20.78206517 6.27020743 22.20353341 6.265625 23.625 C6.26697377 25.09269271 6.26891608 26.56038498 6.27142334 28.02807617 C6.27437202 31.10811608 6.27009021 34.18804 6.26074219 37.26806641 C6.2494281 41.18364877 6.25585713 45.09895447 6.26788712 49.01452637 C6.27518173 52.05004891 6.27278193 55.08550806 6.26763153 58.12103271 C6.26631173 59.56248 6.26788312 61.00393333 6.27259064 62.44537354 C6.33510615 86.99750982 -0.88016545 107.0556975 -18 125 C-39.96492349 144.59198162 -65.01373493 146.87814047 -92.99169922 146.70678711 C-96.87757247 146.68369113 -100.76128922 146.71098751 -104.64695168 146.75184917 C-107.67730219 146.77751971 -110.70714027 146.77482643 -113.73756027 146.76395607 C-115.17034262 146.76248325 -116.60316697 146.76999661 -118.03584671 146.78720665 C-125.98308575 146.86737564 -131.84621672 146.54242397 -138.31137085 141.65803528 C-142.45237393 137.59205715 -144.17733172 133.18686208 -144.5 127.4375 C-144.22236671 122.06066867 -142.26888643 118.28665839 -138.50390625 114.4921875 C-133.94787621 110.51560267 -130.70067142 109.87644683 -124.80712891 109.87402344 C-122.88835434 109.86831329 -122.88835434 109.86831329 -120.93081665 109.86248779 C-120.24653217 109.86229393 -119.5622477 109.86210007 -118.85722733 109.86190033 C-115.9613458 109.85846804 -113.06568538 109.83707111 -110.16988182 109.81666946 C-104.78461361 109.77880544 -99.39957682 109.74736682 -94.01416016 109.74951172 C-90.26263493 109.75030681 -86.51191522 109.72659349 -82.76060104 109.6876297 C-81.34234633 109.67728057 -79.92399733 109.67556244 -78.50572586 109.68328094 C-65.38132389 109.74750535 -53.15722002 106.73849901 -43 98 C-35.37501546 89.77664223 -30.75711277 79.52165683 -30.74462891 68.2578125 C-30.73766998 66.95956543 -30.73071106 65.66131836 -30.72354126 64.32373047 C-30.7242223 63.63970154 -30.72490334 62.95567261 -30.72560501 62.25091553 C-30.72657866 60.0891295 -30.71353145 57.92782935 -30.69662476 55.76611328 C-30.65059695 49.62471188 -30.62574827 43.48336516 -30.61914062 37.34179688 C-30.61411006 33.57282945 -30.58979023 29.80437632 -30.55381393 26.0355835 C-30.54405876 24.60678198 -30.5416605 23.17790937 -30.54698563 21.74908447 C-30.57837877 12.91517274 -30.48348622 6.99908713 -24.4375 0.2578125 C-16.67010827 -5.8632299 -8.05533564 -5.53133047 0 0 Z " fill="#FDFDFD" transform="translate(442,302)"/>
<path d="M0 0 C0.81771277 -0.00367669 1.63542554 -0.00735338 2.47791749 -0.01114148 C5.22766032 -0.02218565 7.97736537 -0.02602341 10.72712708 -0.02983093 C12.69486105 -0.03609505 14.66259383 -0.0427418 16.63032532 -0.04974365 C21.98381576 -0.06715855 27.33729726 -0.07770686 32.69080901 -0.08594918 C36.03522061 -0.09109856 39.37962944 -0.09717433 42.72403908 -0.10346031 C53.18705238 -0.12251421 63.65005861 -0.13674464 74.11308593 -0.14507228 C86.19233685 -0.15484486 98.27140453 -0.18116421 110.35059088 -0.22157317 C119.68573258 -0.25173102 129.02082174 -0.26654087 138.35601121 -0.26985329 C143.93202579 -0.27220423 149.50784465 -0.28117049 155.08380699 -0.30631447 C160.33118701 -0.32959414 165.57824243 -0.33382873 170.82566071 -0.32355309 C172.74931989 -0.32305759 174.67299503 -0.32938218 176.5966053 -0.34310913 C179.22803982 -0.36083313 181.8583101 -0.35371965 184.48974609 -0.34057617 C185.24647761 -0.35154542 186.00320913 -0.36251466 186.7828719 -0.37381631 C192.26944705 -0.30790057 196.46243748 1.13087157 201.06233215 4.14717102 C204.78868512 8.06964783 207.33853927 11.90428653 207.43733215 17.39717102 C207.29874796 22.35359384 206.04380763 26.16898136 203.06233215 30.14717102 C197.47522098 35.26445694 192.60171556 36.29631173 185.13139343 36.30780029 C184.31438623 36.31288811 183.49737902 36.31797593 182.65561402 36.32321793 C179.90821318 36.33895837 177.16083867 36.34747172 174.41340637 36.35591125 C172.44729444 36.36544849 170.48118419 36.3753396 168.51507568 36.38555908 C162.04907731 36.41696128 155.583066 36.43721381 149.11701965 36.45576477 C148.01700449 36.45906209 146.91698934 36.46235941 145.78364038 36.46575665 C135.40937554 36.49653979 125.0351078 36.52324783 114.66081047 36.54017544 C101.39132558 36.56208071 88.12224541 36.60404693 74.85292232 36.67361301 C65.52286433 36.72086561 56.19291548 36.74511077 46.86274159 36.75237232 C41.29049476 36.75732692 35.71870394 36.77239001 30.14658737 36.81211662 C24.9015586 36.84901787 19.65724562 36.85738097 14.41211128 36.84411049 C12.49046654 36.84416438 10.56878979 36.85443739 8.64726448 36.87586212 C-8.86260328 37.06060552 -8.86260328 37.06060552 -15.40159416 31.80748081 C-19.32296616 27.56895217 -21.11438143 23.34504724 -21.43766785 17.58467102 C-21.16003456 12.20783969 -19.20655428 8.43382941 -15.4415741 4.63935852 C-10.42169049 0.25791397 -6.38856109 -0.00153384 0 0 Z " fill="#FDFDFD" transform="translate(162.9376678466797,135.8528289794922)"/>
<path d="M0 0 C1.97847963 -0.0064992 3.95695224 -0.0155645 5.93540955 -0.0269928 C11.29086106 -0.0500138 16.64559719 -0.0353905 22.00102544 -0.01252341 C27.61335936 0.00643273 33.22564651 -0.00477194 38.83799744 -0.01142883 C48.26060308 -0.01776333 57.68292306 0.00047021 67.10546875 0.03320312 C77.99096556 0.07070605 88.87592157 0.06891221 99.76144701 0.04616195 C110.24533896 0.02519735 120.72903148 0.03249514 131.21291924 0.0524807 C135.66931306 0.0604562 140.12553772 0.05848777 144.58192635 0.04845619 C149.83117474 0.03788852 155.07979438 0.05207977 160.32894325 0.08519936 C162.25257916 0.09339178 164.17627282 0.09313999 166.09990311 0.08372116 C168.73132754 0.0722539 171.36081043 0.09173498 173.99208069 0.11885071 C174.74861044 0.10837922 175.50514018 0.09790773 176.28459507 0.08711892 C182.06616198 0.19768918 186.08917168 2.11049719 190.56225586 5.76049805 C194.69026144 11.0528129 196.11239952 15.04874539 195.56225586 21.76049805 C193.48643864 27.70590932 190.13243871 32.906938 184.41170406 35.87701702 C180.72406229 37.02038279 177.22984315 37.04020848 173.40858459 37.02119446 C172.18346079 37.02693278 172.18346079 37.02693278 170.93358701 37.03278702 C168.19914863 37.04309874 165.46492094 37.03912836 162.73046875 37.03515625 C160.76904608 37.03950372 158.80762511 37.04468699 156.84620667 37.05064392 C151.51980435 37.06404101 146.19347296 37.06461182 140.86705709 37.06208062 C136.42111369 37.06101145 131.97518468 37.06589288 127.52924436 37.07068604 C117.04129521 37.08178357 106.55338187 37.08221717 96.06542969 37.07617188 C85.24371673 37.07013015 74.42213373 37.08244762 63.60044295 37.10374194 C54.31029559 37.12135079 45.02018962 37.12736045 35.73002619 37.1241042 C30.18097967 37.12229015 24.63202587 37.12493982 19.08299446 37.13881874 C13.8651689 37.15138084 8.64754614 37.14946825 3.42972374 37.13640785 C1.51490842 37.13403904 -0.39992111 37.13678763 -2.31472015 37.14503098 C-4.92907924 37.15547432 -7.5427548 37.14741728 -10.15708923 37.13471985 C-10.91439125 37.14209413 -11.67169326 37.14946842 -12.45194381 37.15706617 C-18.01605284 37.10023327 -22.10416948 35.86470426 -26.26586914 32.11206055 C-29.940166 27.65041436 -32.14847178 24.31573723 -32.81274414 18.44799805 C-32.25560466 12.96945986 -30.64922829 9.16589192 -26.90210819 5.09021282 C-19.00022914 -1.23355946 -9.59231205 -0.07432329 0 0 Z " fill="#FDFDFD" transform="translate(174.437744140625,273.239501953125)"/>
<path d="M0 0 C1.28130295 -0.00852997 2.5626059 -0.01705994 3.88273621 -0.02584839 C5.30062879 -0.02514937 6.71852127 -0.02422632 8.13641357 -0.02310181 C9.63139685 -0.02908701 11.12637703 -0.03589254 12.62135315 -0.04345703 C16.68145783 -0.06112806 20.74147821 -0.06581296 24.80161762 -0.0670886 C27.33981769 -0.06851048 29.87799635 -0.07278083 32.4161911 -0.07808304 C41.275908 -0.09658904 50.13556471 -0.1047532 58.99530029 -0.10317993 C67.24550674 -0.10197933 75.49545122 -0.12306418 83.7455914 -0.15466726 C90.83449825 -0.18085144 97.92331968 -0.19154629 105.0122745 -0.19026911 C109.2435392 -0.18975998 113.47457125 -0.19541572 117.70578766 -0.21662521 C121.68841569 -0.23604308 125.67059009 -0.23610813 129.65323448 -0.22159195 C131.11086123 -0.21950692 132.56851663 -0.22418655 134.02609444 -0.23631287 C142.00677224 -0.29838037 148.00313832 -0.19941213 154.76434326 4.26742554 C159.5620835 9.31767842 161.36507371 13.6927683 161.20184326 20.59945679 C160.42851627 25.31537052 158.19114779 28.98127343 154.76434326 32.26742554 C147.43140027 37.05428819 140.54316216 36.83120365 131.99822998 36.76913452 C130.50926199 36.77292244 129.02029753 36.77842637 127.53134155 36.7855072 C123.50659615 36.79941519 119.48228045 36.7883262 115.45755911 36.77179599 C111.23764337 36.75790039 107.01775143 36.7644105 102.79782104 36.76792908 C95.71481434 36.77062705 88.63197751 36.75718917 81.54901123 36.73397827 C73.36687039 36.70735054 65.18501309 36.70562947 57.00284374 36.71736664 C49.11978021 36.72815371 41.23681899 36.72195139 33.35376358 36.70781136 C30.00381164 36.70206168 26.6539348 36.70212616 23.30398178 36.70687675 C19.35908556 36.71165686 15.41449905 36.70150235 11.46966171 36.6799221 C10.02410934 36.67436886 8.57852711 36.6738755 7.13297272 36.67887497 C5.1561567 36.68485337 3.17931064 36.67045409 1.20254517 36.65510559 C-0.45492328 36.65146075 -0.45492328 36.65146075 -2.14587593 36.64774227 C-8.45300886 35.87140623 -12.1627629 32.79908327 -15.97784424 28.02523804 C-19.18155164 23.5480072 -19.79120778 19.73034415 -19.23565674 14.26742554 C-17.10296022 8.11142587 -14.0273505 4.59596387 -8.46913528 1.18257713 C-5.5463545 -0.01501105 -3.15844707 0.00950113 0 0 Z " fill="#FDFDFD" transform="translate(161.23565673828125,201.73257446289063)"/>
<path d="M0 0 C1.28689728 -0.01004562 2.57379456 -0.02009125 3.89968872 -0.03044128 C5.32907046 -0.03647137 6.75845282 -0.04235637 8.18783569 -0.04811096 C9.69089984 -0.05765031 11.19396179 -0.0675415 12.69702148 -0.07775879 C17.63712968 -0.10914008 22.57725467 -0.12941283 27.51742554 -0.14796448 C28.77894983 -0.15291046 28.77894983 -0.15291046 30.06595945 -0.15795636 C38.00088006 -0.18874133 45.93580452 -0.21544353 53.87076759 -0.23237514 C64.01184398 -0.25426927 74.15239008 -0.29621329 84.29325449 -0.36581272 C91.4280008 -0.41311255 98.56260435 -0.4373168 105.69750249 -0.44457203 C109.95636333 -0.44952003 114.21462643 -0.46451849 118.47331619 -0.50431633 C122.48396048 -0.54130165 126.49366866 -0.54955411 130.50445175 -0.5363102 C131.97136437 -0.53636395 133.43831972 -0.54658184 134.90507507 -0.56806183 C143.81688876 -0.69152688 150.16644692 -0.10087965 156.85336304 6.16062927 C161.0290598 11.2882569 160.4713122 16.84381558 159.85336304 23.16062927 C157.9336008 29.02656944 154.199487 32.07601727 149.04931259 35.28454018 C146.15934145 36.43751393 143.76699002 36.41863309 140.65567017 36.42805481 C139.38278137 36.43658478 138.10989258 36.44511475 136.7984314 36.4539032 C135.38998401 36.45320418 133.98153671 36.45228113 132.5730896 36.45115662 C131.08795839 36.45714187 129.6028303 36.46394741 128.1177063 36.47151184 C124.08446016 36.4891824 120.05129888 36.49386775 116.01801777 36.49514341 C113.49656861 36.49656532 110.97514101 36.50083572 108.4536972 36.50613785 C99.65233491 36.52464372 90.8510332 36.53280803 82.0496521 36.53123474 C73.8539765 36.53003415 65.65856461 36.55111878 57.46295571 36.58272207 C50.42075752 36.6089069 43.37864532 36.61960107 36.33639884 36.61832392 C32.1330792 36.61781481 27.92999375 36.62346954 23.72672272 36.64468002 C19.77035855 36.66409899 15.81445101 36.66416221 11.85807037 36.64964676 C10.41011892 36.64756186 8.96213862 36.65224057 7.51423645 36.66436768 C-0.45409918 36.726757 -6.37858928 36.5801837 -13.14663696 32.16062927 C-14.98648071 30.34422302 -14.98648071 30.34422302 -16.08413696 28.59812927 C-16.4644104 28.01934021 -16.84468384 27.44055115 -17.23648071 26.84422302 C-19.62196241 22.43159378 -19.72455047 18.0444054 -19.14663696 13.16062927 C-17.26883345 7.75255516 -13.6952627 4.45112449 -9.14663696 1.16062927 C-5.8723199 0.06919025 -3.44768536 0.02112877 0 0 Z " fill="#FDFDFD" transform="translate(161.14663696289063,339.83937072753906)"/>
</svg>
