<?xml version="1.0" encoding="UTF-8"?>
<svg version="1.1" xmlns="http://www.w3.org/2000/svg" width="512" height="512">
<path d="M0 0 C0.8720294 -0.00445784 1.7440588 -0.00891569 2.64251333 -0.01350862 C3.59609573 -0.01332426 4.54967812 -0.01313989 5.53215694 -0.01294994 C6.54870151 -0.01662663 7.56524608 -0.02030332 8.61259502 -0.02409142 C12.02938584 -0.0351315 15.44614624 -0.03897268 18.86295223 -0.04278088 C21.30871839 -0.04904533 23.7544836 -0.05569211 26.20024776 -0.0626936 C33.54760297 -0.08192271 40.8949501 -0.0925226 48.24232307 -0.10142139 C51.70517609 -0.10580762 55.16802759 -0.11117361 58.6308794 -0.11641026 C70.14746343 -0.13342177 81.66404651 -0.14791452 93.18064117 -0.155159 C96.16816935 -0.15706879 99.15569752 -0.15898914 102.14322567 -0.16094494 C103.25698508 -0.16167055 103.25698508 -0.16167055 104.39324468 -0.16241082 C116.41334609 -0.17070583 128.43334783 -0.19603412 140.45340575 -0.22852562 C152.80349301 -0.26163608 165.1535297 -0.2796114 177.50366157 -0.28280324 C184.43398467 -0.28496479 191.36416244 -0.29366105 198.29444218 -0.31926441 C204.8172891 -0.34330729 211.33992213 -0.3467721 217.86282063 -0.33650303 C220.25286001 -0.33600791 222.64291231 -0.3423211 225.03291225 -0.35605907 C228.3046998 -0.3738086 231.57555338 -0.36665596 234.84734249 -0.35352612 C235.78530983 -0.36449536 236.72327717 -0.37546461 237.68966776 -0.38676625 C249.39014961 -0.27399256 259.52551676 4.43612849 268.01700497 12.35687733 C276.92539155 21.6327716 280.78417626 31.14698572 280.78136349 43.85530567 C280.78504018 44.74526011 280.78871686 45.63521456 280.79250497 46.55213732 C280.80353641 49.54052327 280.80738476 52.52887445 280.81119442 55.51727772 C280.81745955 57.65762918 280.8241064 59.79797956 280.83110714 61.93832874 C280.85214657 68.97367057 280.86251041 76.00901261 280.87247372 83.04437733 C280.87652152 85.46734027 280.88063845 87.89030309 280.8848238 90.3132658 C280.90387634 101.69838948 280.91810643 113.08350669 280.92643577 124.46864325 C280.93620447 137.603977 280.96251431 150.73914208 281.00293666 163.87441641 C281.03311748 174.03084965 281.04790658 184.18723459 281.05121678 194.34371179 C281.05356529 200.40773211 281.06249994 206.47157224 281.08767796 212.5355444 C281.11099744 218.24421526 281.11517615 223.95258779 281.10491657 229.66129398 C281.10442203 231.75139897 281.11071839 233.84151884 281.12447262 235.93157864 C281.22324983 251.83734538 279.71004101 264.40440102 268.41153622 276.51703358 C260.98923786 283.64526306 251.84420588 289.34014972 241.26117611 289.21168995 C240.39242352 289.20413685 239.52367092 289.19658375 238.62859249 289.18880177 C237.68314068 289.17570469 236.73768887 289.16260761 235.763587 289.14911366 C233.68612745 289.12967873 231.60866336 289.11072458 229.53119564 289.09218311 C228.4297937 289.08102278 227.32839176 289.06986244 226.19361401 289.05836391 C219.11597037 288.99720133 212.03800413 288.99707114 204.96013737 288.98575783 C198.74990332 288.97234911 192.54120468 288.93765523 186.33145809 288.85663319 C180.31561262 288.77934347 174.30210508 288.76137816 168.2858305 288.78245068 C166.00300484 288.780008 163.72009348 288.75653565 161.43772411 288.71082973 C145.69322054 288.30340366 145.69322054 288.30340366 132.47745419 295.92596912 C130.93850876 297.46238056 129.46309714 299.0300482 128.01570415 300.65275097 C125.86382942 302.96032326 123.41730405 304.86848828 120.94669247 306.82172108 C120.06368465 307.53972889 119.18067684 308.2577367 118.27091122 308.99750233 C117.40079403 309.70261951 116.53067684 310.4077367 115.63419247 311.13422108 C110.34468018 315.43243384 105.07373987 319.74551728 99.89420223 324.17572498 C75.68748896 344.84378329 75.68748896 344.84378329 59.33341122 344.48578358 C51.51350825 343.74260378 45.09596811 340.84425925 39.63419247 335.13422108 C34.91709335 328.20840967 32.47496978 323.04821454 32.53653622 314.62250233 C32.53795116 313.89427769 32.53936611 313.16605305 32.54082394 312.41576099 C32.54641588 310.09270569 32.55896685 307.76974719 32.57169247 305.44672108 C32.57670851 303.8705506 32.58127124 302.2943786 32.58536434 300.71820545 C32.59638267 296.85684009 32.61364173 292.99554699 32.63419247 289.13422108 C31.60648739 289.15516834 30.57878231 289.17611561 29.51993465 289.19769764 C25.6509398 289.270939 21.78200411 289.31632131 17.91251278 289.35394764 C16.24834493 289.37387394 14.58424533 289.40102536 12.92032528 289.43597889 C-2.96851227 289.76102129 -15.2281325 287.46571917 -27.33065128 276.32562733 C-35.72030192 267.49538235 -39.51562519 257.37083307 -39.51297855 245.41313648 C-39.51665524 244.52318204 -39.52033193 243.6332276 -39.52412003 242.71630484 C-39.53515147 239.72791888 -39.53899983 236.7395677 -39.54280949 233.75116444 C-39.54907462 231.61081297 -39.55572146 229.4704626 -39.56272221 227.33011341 C-39.58376164 220.29477159 -39.59412547 213.25942955 -39.60408878 206.22406483 C-39.60813658 203.80110189 -39.61225351 201.37813906 -39.61643887 198.95517635 C-39.6354914 187.57005267 -39.6497215 176.18493547 -39.65805084 164.79979891 C-39.66781954 151.66446515 -39.69412937 138.52930007 -39.73455173 125.39402574 C-39.76473255 115.23759251 -39.77952165 105.08120756 -39.78283185 94.92473036 C-39.78518036 88.86071004 -39.79411501 82.79686991 -39.81929302 76.73289776 C-39.8426125 71.02422689 -39.84679121 65.31585436 -39.83653164 59.60714817 C-39.83603709 57.51704318 -39.84233346 55.42692331 -39.85608768 53.33686352 C-39.95486489 37.43109678 -38.44165608 24.86404113 -27.14315128 12.75140858 C-19.68672562 5.5904039 -10.59956151 0.02521156 0 0 Z M26.63419247 104.25922108 C24.60463908 110.09418707 24.66622483 115.91596192 27.13419247 121.57172108 C33.0694499 127.65535994 38.66336682 128.5608777 46.91448116 128.66937637 C49.16109161 128.67661175 51.40714346 128.66441194 53.65372372 128.6517992 C55.27737714 128.65722538 56.90102564 128.66435082 58.52466488 128.67303944 C62.91727387 128.69121685 67.3095055 128.68422847 71.70212078 128.67152309 C76.30815014 128.6613664 80.9141481 128.67079617 85.52017879 128.67706776 C93.25388013 128.6843364 100.98742845 128.67477704 108.72110653 128.65570545 C117.6507843 128.6339382 126.5800967 128.64099012 135.50976562 128.66301107 C143.18900101 128.68118741 150.86812668 128.68371249 158.54737663 128.6732564 C163.12842894 128.66703373 167.70930975 128.66615197 172.29035091 128.67940235 C176.59808663 128.69099282 180.90535319 128.68287712 185.21303844 128.65982533 C186.78998315 128.65455524 188.36696763 128.6560228 189.94389629 128.66487598 C201.37925952 128.74550357 201.37925952 128.74550357 211.63419247 124.13422108 C215.18130949 120.49842613 215.91997473 117.56792322 216.13419247 112.63422108 C215.92699147 107.70818458 215.12234122 104.80124926 211.63419247 101.13422108 C204.80890013 95.64969337 196.87637147 96.56317865 188.54459286 96.60077381 C186.90138126 96.59371071 185.25817616 96.58496405 183.61498165 96.57466602 C179.16448068 96.55220578 174.7143359 96.55510387 170.26379991 96.56398749 C166.54364191 96.56910559 162.82355037 96.56179814 159.10339922 96.55451542 C150.3249487 96.53752704 141.54667205 96.54107148 132.76822567 96.55780506 C123.72206746 96.57472634 114.67639179 96.55888943 105.63028628 96.52658218 C97.85340279 96.49986351 90.07666931 96.4926164 82.29974455 96.50109726 C77.65938445 96.50601973 73.01931464 96.50384777 68.37899113 96.48330975 C64.01456515 96.46491671 59.6508318 96.47095517 55.28644276 96.49550915 C53.68853123 96.50050557 52.09056661 96.49705765 50.49269772 96.48436069 C40.68635756 96.41262644 33.60739439 96.85019403 26.63419247 104.25922108 Z M26.63419247 174.13422108 C25.18486264 178.48221056 25.11750182 182.59017452 25.63419247 187.13422108 C28.24740086 192.26730898 31.17356488 195.31401188 36.63419247 197.13422108 C38.25739189 197.23003807 39.88422974 197.26913112 41.51024532 197.27466297 C43.0179726 197.28322819 43.0179726 197.28322819 44.55615902 197.29196644 C46.20897381 197.29364323 46.20897381 197.29364323 47.89517879 197.29535389 C49.05640759 197.30031879 50.21763638 197.3052837 51.41405392 197.31039906 C55.26478316 197.32503277 59.11547121 197.33182467 62.96622372 197.33734608 C64.96294606 197.34164358 66.9596684 197.3459416 68.95639056 197.35032058 C74.52084314 197.36213139 80.08528574 197.36966882 85.64974958 197.37311578 C92.84059669 197.37759496 100.03125358 197.39513734 107.22204286 197.42411637 C112.78393848 197.44575099 118.34578064 197.45582102 123.90771788 197.4571569 C127.22789582 197.45820373 130.54785437 197.46553571 133.86799717 197.48197651 C137.57381916 197.49901732 141.27917735 197.49716122 144.98502254 197.49066639 C146.08082638 197.49988117 147.17663021 197.50909595 148.30564022 197.51858997 C153.81966845 197.48829387 157.91586992 197.33230615 162.63419247 194.13422108 C167.07990276 189.20789346 167.99045375 186.18051251 167.91544247 179.67328358 C167.36958098 174.74536739 164.63945671 172.0640905 161.13419247 168.82172108 C157.39161242 166.29547954 154.2500211 166.00950088 149.79646969 165.99377918 C148.82504528 165.98806904 147.85362087 165.98235889 146.85275936 165.97647572 C145.26379848 165.97479893 145.26379848 165.97479893 143.64273739 165.97308826 C142.52198315 165.96812336 141.4012289 165.96315845 140.24651241 165.9580431 C136.53588912 165.94342848 132.82530857 165.93662075 129.11466122 165.93109608 C126.53639887 165.92534424 123.95813655 165.91958651 121.37987423 165.91382313 C116.66317018 165.90465817 111.94648321 165.89835693 107.22977179 165.89532638 C100.29816395 165.89084762 93.36675348 165.87330483 86.43520564 165.84432578 C80.42202127 165.82006306 74.40892995 165.81238007 68.39569187 165.81065083 C65.84203994 165.80762464 63.28838883 165.7995973 60.73476887 165.78646564 C57.16097108 165.76939912 53.58765321 165.77128718 50.01383114 165.77777576 C48.96059658 165.76856098 47.90736202 165.7593462 46.82221127 165.74985218 C38.16892096 165.799033 32.47886678 167.25813365 26.63419247 174.13422108 Z " fill="#000000" transform="translate(135.36580753326416,135.86577892303467)"/>
<path d="M0 0 C0 45.21 0 90.42 0 137 C-10.41183272 135.95881673 -18.29992763 134.16835132 -25.35307312 126.1162262 C-33.24600992 115.9741611 -32.75438209 105.10658316 -32.69921875 92.87890625 C-32.70513893 90.92796902 -32.71239034 88.97703543 -32.72090149 87.02610779 C-32.73273415 82.952026 -32.72615368 78.87849218 -32.70678711 74.80444336 C-32.6839113 69.61173582 -32.71069133 64.42066601 -32.75184917 59.22811985 C-32.77755835 55.20343633 -32.77481164 51.17913786 -32.76395607 47.15440178 C-32.76248034 45.24124604 -32.77003101 43.32805915 -32.78720665 41.41497993 C-32.87894612 29.21927728 -32.43395608 19.00496391 -23.72465515 9.52272034 C-16.7288919 2.77588361 -9.71651535 0 0 0 Z " fill="#000000" transform="translate(64,206)"/>
<path d="M0 0 C12.05882484 1.20588248 18.25847538 3.32661469 26.2109375 12.328125 C30.66252251 18.97634367 32.59984363 25.03686662 32.54931641 33.0012207 C32.5646492 34.27638046 32.5646492 34.27638046 32.58029175 35.57730103 C32.60786995 38.36042213 32.60618667 41.14254057 32.6015625 43.92578125 C32.60934903 45.87957621 32.61802095 47.83336783 32.62753296 49.78715515 C32.64241197 53.87310785 32.64190889 57.95871481 32.63134766 62.04467773 C32.6197725 67.25309085 32.65360418 72.46007816 32.700037 77.66825581 C32.72965875 81.70149357 32.73123526 85.73439388 32.72501755 89.76772118 C32.72603691 91.68647265 32.73637857 93.60524479 32.75664139 95.52388954 C32.87023467 107.78431221 32.36041738 117.76471944 23.84976196 127.44599915 C18.80780149 132.52938622 12.97252082 135.4528129 6 137 C4.02 137 2.04 137 0 137 C0 91.79 0 46.58 0 0 Z " fill="#000000" transform="translate(448,206)"/>
<path d="M0 0 C4.63192542 2.1505368 8.12101432 5.18553139 10 10 C10.55867443 14.71284731 10.46591693 19.41131575 10.390625 24.1484375 C10.3831563 25.52990904 10.37746634 26.91139124 10.37347412 28.2928772 C10.35826689 31.91316438 10.31902917 35.5328005 10.2746582 39.15283203 C10.23359833 42.85309892 10.21522057 46.55347507 10.1953125 50.25390625 C10.15465478 57.50317748 10.07635344 64.75066541 10 72 C-0.56 72 -11.12 72 -22 72 C-22.08397966 64.02659778 -22.16410406 56.05480536 -22.20700073 48.0813446 C-22.22808735 44.36800129 -22.25624572 40.65502564 -22.30175781 36.94189453 C-22.34535112 33.36274214 -22.36916523 29.78394536 -22.37950897 26.20454788 C-22.38687635 24.84181753 -22.40126338 23.47910573 -22.42292023 22.11652756 C-22.62437692 8.91141452 -22.62437692 8.91141452 -18 4 C-12.72867143 -1.00776214 -6.89190982 -0.92775709 0 0 Z " fill="#000000" transform="translate(358,32)"/>
</svg>
