<?xml version="1.0" encoding="UTF-8"?>
<svg version="1.1" xmlns="http://www.w3.org/2000/svg" width="512" height="512">
<path d="M0 0 C6.12616865 5.08671043 7.83052883 11.20716059 9.1640625 18.796875 C9.40756402 21.60370887 9.42583314 24.38363356 9.40356445 27.19970703 C9.40557861 27.98647324 9.40759277 28.77323944 9.40966797 29.58384705 C9.4131868 31.27630387 9.41247967 32.96877392 9.40789223 34.66122818 C9.40223895 37.35461517 9.41155661 40.04758095 9.4250946 42.74093628 C9.46196155 50.39339118 9.48082552 58.04570066 9.46948242 65.69824219 C9.46357703 70.39675245 9.4821511 75.09466764 9.51537132 79.79305649 C9.52323965 81.56693735 9.52216692 83.34088459 9.51134682 85.11474991 C9.40982337 102.51186646 12.60280552 116.27949232 24.6640625 129.546875 C25.9015625 130.660625 25.9015625 130.660625 27.1640625 131.796875 C27.86015625 132.49876953 27.86015625 132.49876953 28.5703125 133.21484375 C37.90818091 142.11786045 50.89134566 146.10091972 63.56445312 146.08398438 C64.36231735 146.09081741 65.16018158 146.09765045 65.98222351 146.10469055 C67.70033493 146.11819296 69.41848555 146.12730088 71.13664246 146.13240051 C73.86161986 146.14075159 76.58627199 146.16131239 79.31115723 146.18493652 C85.09541021 146.23295872 90.87969574 146.26602728 96.6640625 146.296875 C103.37129524 146.33264431 110.07836689 146.37466671 116.78544617 146.43281555 C119.45972905 146.45276629 122.13388607 146.46117854 124.80822754 146.46911621 C126.46004688 146.48209764 128.1118621 146.49561926 129.76367188 146.50976562 C130.49845261 146.50878372 131.23323334 146.50780182 131.99028015 146.50679016 C140.19579976 146.60407383 147.80494347 148.36173053 154.1640625 153.796875 C160.34005551 161.62387604 160.91499704 169.00207659 160.1640625 178.796875 C158.49967678 185.45441787 153.69194952 189.98808878 148.1640625 193.796875 C143.58807182 196.15480599 139.41378154 196.08673742 134.38916016 196.0715332 C133.51519592 196.07664413 132.64123169 196.08175507 131.74078369 196.08702087 C128.85316087 196.10091022 125.96577726 196.09995906 123.078125 196.09765625 C121.058542 196.10154661 119.0389598 196.10588198 117.01937866 196.11064148 C112.7809586 196.11810454 108.54262181 196.11781401 104.30419922 196.11254883 C98.91029932 196.10678698 93.51674648 196.12360487 88.12290382 196.1468935 C83.94634046 196.1617404 79.76985825 196.1624872 75.59327316 196.15938377 C73.60724583 196.15989259 71.62121341 196.16504644 69.63521194 196.17519569 C55.01949906 196.24066091 41.46292482 195.17321794 27.6015625 190.109375 C26.54751221 189.72809448 26.54751221 189.72809448 25.47216797 189.33911133 C-0.47544276 179.55678596 -20.34642835 158.80197939 -32.04296875 134.0078125 C-37.19411738 122.41567854 -39.97264398 110.27424612 -40.01293945 97.61376953 C-40.02279625 96.25647736 -40.02279625 96.25647736 -40.03285217 94.87176514 C-40.05248921 91.89107162 -40.06422425 88.91042819 -40.07421875 85.9296875 C-40.07829428 84.90811428 -40.0823698 83.88654106 -40.08656883 82.83401108 C-40.1073853 77.43019567 -40.12170799 72.02640535 -40.13110352 66.62255859 C-40.14217888 61.05195513 -40.1766047 55.48174987 -40.21627522 49.91128731 C-40.24245001 45.61664094 -40.25079597 41.32208957 -40.25438499 37.02737045 C-40.25924603 34.97413305 -40.27084618 32.92089975 -40.28942299 30.86774063 C-40.31384019 27.9910968 -40.31284501 25.11548584 -40.3059082 22.23876953 C-40.31871826 21.39798859 -40.33152832 20.55720764 -40.34472656 19.69094849 C-40.28225284 12.55399405 -38.10312183 7.4929861 -33.5234375 2.046875 C-23.20718871 -6.58998445 -11.34137795 -7.56091863 0 0 Z " fill="#000000" transform="translate(39.8359375,316.203125)"/>
<path d="M0 0 C4.1833232 3.51248399 6.4608234 7.69887646 8.16796875 12.8203125 C8.27496059 15.70797628 8.32523633 18.57185073 8.32910156 21.45996094 C8.33406647 22.34338669 8.33903137 23.22681244 8.34414673 24.13700867 C8.3587802 27.06790953 8.36557628 29.99875606 8.37109375 32.9296875 C8.37684913 34.97454835 8.38260681 37.01940919 8.3883667 39.06427002 C8.39888341 43.36169689 8.40472008 47.65910504 8.40820312 51.95654297 C8.41365542 57.42670438 8.43761006 62.89661277 8.46617508 68.3666954 C8.48494028 72.59815147 8.49001463 76.82954866 8.491539 81.06104279 C8.4945405 83.07498796 8.50248291 85.08893273 8.51572418 87.10283661 C8.71088792 119.09939071 -0.85774574 144.18883957 -23.08203125 167.4453125 C-36.66355824 180.70571854 -53.49690713 189.29145717 -71.83203125 193.8203125 C-72.85642807 194.08144585 -72.85642807 194.08144585 -73.90151978 194.34785461 C-83.74046188 196.4852373 -93.73515698 196.14875489 -103.75 196.15625 C-105.77777701 196.16268733 -107.80555312 196.16941636 -109.83332825 196.17642212 C-114.06525833 196.18834299 -118.29710706 196.19210789 -122.52905273 196.19091797 C-127.93924442 196.19071411 -133.34891477 196.21810823 -138.75898266 196.25246239 C-142.93954348 196.27473438 -147.11997835 196.27875555 -151.30059242 196.27769852 C-153.29520796 196.28005046 -155.28982717 196.28885097 -157.28438377 196.30436325 C-160.07431854 196.32404627 -162.86312165 196.31817808 -165.65307617 196.30615234 C-166.46730042 196.31739136 -167.28152466 196.32863037 -168.12042236 196.34020996 C-174.82670022 196.26707084 -180.00927727 194.2939105 -185.07421875 189.85546875 C-190.05602643 183.83677765 -192.6877929 178.83996462 -192.83203125 170.8203125 C-192.22754511 164.41723709 -190.18384246 158.62648915 -185.83203125 153.8203125 C-178.0939853 147.8779066 -171.35254013 146.67154234 -161.73803711 146.6784668 C-160.9484964 146.67499237 -160.15895569 146.67151794 -159.3454895 146.66793823 C-157.63824598 146.6606135 -155.93099315 146.65525072 -154.22373772 146.65164757 C-151.51021159 146.64443378 -148.79686128 146.62872896 -146.08338928 146.61030579 C-138.37047808 146.55808092 -130.65766413 146.50993664 -122.94458008 146.49438477 C-118.21714942 146.48423117 -113.4901644 146.45472135 -108.76291084 146.41306496 C-106.97343905 146.40085395 -105.18390405 146.39561534 -103.39439201 146.39786339 C-86.74620836 146.41362538 -73.5892691 143.20273063 -59.64453125 133.6328125 C-53.39107594 127.37935719 -48.24444139 119.98780296 -44.83203125 111.8203125 C-44.56620743 111.18984512 -44.30038361 110.55937775 -44.02650452 109.9098053 C-40.89959398 101.16672448 -41.39114313 92.16063153 -41.390625 83.00390625 C-41.37883237 81.17886812 -41.36546358 79.35383956 -41.3506012 77.52882385 C-41.31458648 72.74676231 -41.294266 67.96478564 -41.27905273 63.18261719 C-41.25413023 55.52693397 -41.21428075 47.87143827 -41.15715218 40.21592903 C-41.14094625 37.55662147 -41.13705732 34.89749454 -41.13414001 32.23814392 C-41.12435537 30.59292295 -41.11409074 28.94770473 -41.10327148 27.30249023 C-41.10582443 26.57444687 -41.10837738 25.8464035 -41.11100769 25.09629822 C-41.0284147 16.67376253 -39.64834271 8.22902606 -33.83203125 1.8203125 C-23.06026952 -6.32937565 -11.54910674 -7.60147884 0 0 Z " fill="#000000" transform="translate(503.83203125,316.1796875)"/>
<path d="M0 0 C2.07250975 0.00103953 4.14502148 -0.00000486 6.2175293 -0.00302124 C10.55498842 -0.00284233 14.89170009 0.01789186 19.22900391 0.05419922 C24.7381154 0.09934508 30.24612596 0.10069759 35.75537109 0.08716393 C40.03677832 0.08041554 44.31794328 0.09387585 48.5993042 0.11342239 C50.62748947 0.12102603 52.65570195 0.1234654 54.68389893 0.1202507 C82.98907606 0.11275447 105.89944265 7.47112568 127.875 25.7265625 C128.885625 26.4896875 129.89625 27.2528125 130.9375 28.0390625 C147.83048701 43.49434849 161.80889642 68.51401151 162.97673607 91.75083256 C163.02575763 94.13747654 163.04440422 96.52252919 163.05200195 98.90966797 C163.05857315 99.81452942 163.06514435 100.71939087 163.07191467 101.65167236 C163.09155171 104.63236588 163.10328675 107.61300931 163.11328125 110.59375 C163.11735678 111.61532322 163.1214323 112.63689644 163.12563133 113.68942642 C163.1464478 119.09324183 163.16077049 124.49703215 163.17016602 129.90087891 C163.18124138 135.47148237 163.2156672 141.04168763 163.25533772 146.61215019 C163.28151251 150.90679656 163.28985847 155.20134793 163.29344749 159.49606705 C163.29830853 161.54930445 163.30990868 163.60253775 163.32848549 165.65569687 C163.35290269 168.5323407 163.35190751 171.40795166 163.3449707 174.28466797 C163.36418579 175.54583939 163.36418579 175.54583939 163.38378906 176.83248901 C163.32427198 183.63167956 161.41401887 188.82915329 156.91015625 193.96875 C156.25917969 194.50757813 155.60820312 195.04640625 154.9375 195.6015625 C154.28910156 196.15585938 153.64070312 196.71015625 152.97265625 197.28125 C146.47142443 201.76068347 139.50359083 201.40119978 131.875 200.7265625 C125.12661235 199.02329533 120.84338211 194.22718103 116.875 188.7265625 C113.75811371 182.77614322 113.72840623 176.22518553 113.7331543 169.63256836 C113.72967987 168.84302765 113.72620544 168.05348694 113.72262573 167.24002075 C113.715301 165.53277723 113.70993822 163.8255244 113.70633507 162.11826897 C113.69912128 159.40474284 113.68341646 156.69139253 113.66499329 153.97792053 C113.61276842 146.26500933 113.56462414 138.55219538 113.54907227 130.83911133 C113.53891867 126.11168067 113.50940885 121.38469565 113.46775246 116.65744209 C113.45554145 114.8679703 113.45030284 113.0784353 113.45255089 111.28892326 C113.46974063 93.13271308 109.80822123 78.48921148 97.13671875 64.828125 C82.460851 51.19148104 64.72787381 49.43676206 45.66469574 49.45216751 C42.98979659 49.45314588 40.31528502 49.44004128 37.64044189 49.42318726 C30.04482882 49.37728468 22.44926309 49.35229526 14.85351562 49.34570312 C10.18405143 49.34067687 5.51500325 49.31638635 0.84568024 49.28037643 C-0.9228134 49.27061962 -2.69136448 49.26822386 -4.45987701 49.27354813 C-6.93366365 49.28065415 -9.40621303 49.26327025 -11.87988281 49.24072266 C-12.95860153 49.25298134 -12.95860153 49.25298134 -14.05911255 49.26548767 C-20.4385424 49.16262699 -25.56798459 46.96729203 -30.3671875 42.76171875 C-35.34899518 36.74302765 -37.98076165 31.74621462 -38.125 23.7265625 C-37.42723625 16.33543538 -34.77918599 10.21563503 -29.38720703 5.06729126 C-20.57844246 -1.27682199 -10.36521207 -0.10309097 0 0 Z " fill="#000000" transform="translate(349.125,-0.7265625)"/>
<path d="M0 0 C2.10409374 -0.0077968 4.20818438 -0.01647074 6.31227112 -0.02597046 C10.68834729 -0.0407737 15.06410026 -0.04039664 19.44018555 -0.02978516 C25.02742135 -0.01813721 30.61334369 -0.0522541 36.20036221 -0.0984745 C40.5320244 -0.128011 44.86337099 -0.12968564 49.19511604 -0.12345505 C51.25507293 -0.12447595 53.31504876 -0.13484701 55.37490654 -0.15507889 C76.59178534 -0.33814944 76.59178534 -0.33814944 83.69140625 6.6015625 C89.85808637 14.46010697 90.44639113 21.75393362 89.69140625 31.6015625 C88.02702053 38.25910537 83.21929327 42.79277628 77.69140625 46.6015625 C73.42389735 48.74301068 69.46900442 48.89497028 64.78686523 48.88867188 C64.00561783 48.89550491 63.22437042 48.90233795 62.41944885 48.90937805 C60.72748615 48.92293541 59.03548283 48.93200835 57.34347343 48.93708801 C54.6554397 48.94541178 51.96774011 48.96595322 49.27980042 48.98962402 C43.56288575 49.03778876 37.84593705 49.07070895 32.12890625 49.1015625 C25.52388752 49.13737679 18.91903035 49.17962047 12.31416512 49.23750305 C9.68439081 49.25736396 7.05474462 49.26585151 4.4249115 49.27380371 C-15.36755477 49.39953668 -31.16611022 52.74503627 -46.3046875 66.40234375 C-55.66359709 76.13644348 -60.6138588 89.52310441 -60.59570312 102.87841797 C-60.60595268 104.05576508 -60.60595268 104.05576508 -60.6164093 105.25689697 C-60.62991078 106.94717463 -60.63901929 108.63749212 -60.64411926 110.32781601 C-60.65247638 113.01133834 -60.67304397 115.69453131 -60.69665527 118.37796021 C-60.7446743 124.0774448 -60.77772732 129.77696258 -60.80859375 135.4765625 C-60.8444011 142.07960522 -60.8865166 148.68248558 -60.9445343 155.28537369 C-60.96443042 157.91413887 -60.97288701 160.54277603 -60.98083496 163.17160034 C-61.12791441 186.47974678 -61.12791441 186.47974678 -68.94921875 194.2265625 C-75.55481279 200.20031711 -81.00894472 201.0726154 -89.86328125 200.90625 C-97.7254013 200.21096047 -101.85818079 196.55402231 -106.86328125 190.69921875 C-110.45990267 185.47925739 -110.60578594 180.80957659 -110.59912109 174.67480469 C-110.60583832 173.7845459 -110.61255554 172.89428711 -110.61947632 171.97705078 C-110.63846581 169.0341227 -110.64238258 166.09142306 -110.64453125 163.1484375 C-110.65096409 161.08880522 -110.65769281 159.02917385 -110.66470337 156.96954346 C-110.6766825 152.64536426 -110.68038409 148.32126493 -110.67919922 143.99707031 C-110.67899727 138.50015409 -110.7061669 133.00376215 -110.74074364 127.50696945 C-110.76318049 123.2462538 -110.76703148 118.9856603 -110.76597977 114.72489166 C-110.76831567 112.7014309 -110.77702347 110.67796571 -110.7926445 108.6545639 C-110.98675841 80.88515031 -103.44204966 57.09027324 -85.30859375 35.6015625 C-84.86386719 35.01117188 -84.41914062 34.42078125 -83.9609375 33.8125 C-64.16442294 8.26470445 -30.52895853 -0.04772543 0 0 Z " fill="#000000" transform="translate(110.30859375,-0.6015625)"/>
<path d="M0 0 C0.91705459 -0.00384115 1.83410919 -0.00768229 2.77895331 -0.01163983 C3.77767848 -0.01077335 4.77640365 -0.00990687 5.80539322 -0.00901413 C7.40711234 -0.01347081 7.40711234 -0.01347081 9.04118943 -0.01801753 C12.62537936 -0.02670097 16.20953588 -0.02821248 19.7937355 -0.02970505 C22.36111904 -0.03433345 24.92850189 -0.03935814 27.49588394 -0.04475021 C34.47530667 -0.05831815 41.45472365 -0.06435579 48.43415737 -0.06876087 C52.79403111 -0.07152577 57.15390263 -0.07576357 61.51377487 -0.08026505 C73.59057221 -0.09245546 85.66736778 -0.10275538 97.74417114 -0.10614014 C98.51674563 -0.1063597 99.28932011 -0.10657927 100.08530594 -0.10680549 C100.85970268 -0.10702377 101.63409942 -0.10724204 102.43196273 -0.10746694 C104.00112136 -0.1079104 105.57028 -0.10835696 107.13943863 -0.10880661 C107.9177914 -0.10902804 108.69614417 -0.10924947 109.49808338 -0.10947761 C122.10790525 -0.11342496 134.7176693 -0.13087807 147.32746884 -0.15416613 C160.28100504 -0.17789547 173.23451225 -0.1903427 186.18807054 -0.19150805 C193.45810359 -0.1924239 200.72806131 -0.19815342 207.99807358 -0.21632767 C214.83691546 -0.23336411 221.67561225 -0.23496945 228.51446915 -0.22618866 C231.02306119 -0.22541768 233.53166089 -0.22976902 236.04023361 -0.23964691 C239.46798318 -0.25235157 242.8952252 -0.24649713 246.32297134 -0.23606491 C247.31277363 -0.24412132 248.30257591 -0.25217772 249.3223722 -0.26047826 C257.85612986 -0.19984537 265.64784151 1.52230508 272.31814957 7.13142776 C278.32515494 15.17332655 279.08123244 22.17817288 278.31814957 32.13142776 C276.65376385 38.78897064 271.84603659 43.32264155 266.31814957 47.13142776 C262.91858019 48.69846894 260.24375435 49.38223159 256.50856686 49.38869667 C255.5630284 49.39514556 254.61748994 49.40159446 253.6432988 49.40823877 C252.61276393 49.40514156 251.58222906 49.40204436 250.52046585 49.3988533 C248.86868575 49.40564997 248.86868575 49.40564997 247.18353635 49.41258395 C243.48642164 49.42526396 239.78945356 49.42360523 236.09231949 49.42195511 C233.44449183 49.42793811 230.79667574 49.43468636 228.1488533 49.44231033 C221.69850744 49.45891719 215.24819814 49.46441974 208.79783269 49.46553509 C203.5539264 49.46648574 198.31003216 49.47059687 193.06612968 49.47693634 C178.19505694 49.4945481 163.32401306 49.50377535 148.45292982 49.50227539 C147.25058981 49.50215552 147.25058981 49.50215552 146.02396011 49.50203323 C145.22142012 49.50195147 144.41888012 49.50186971 143.59202073 49.50178547 C130.58704211 49.50097265 117.58217934 49.52010952 104.57723423 49.54830997 C91.22028247 49.5770449 77.8633872 49.59084992 64.50640374 49.58912241 C57.00890703 49.58845871 49.51153174 49.59394236 42.01406288 49.61547852 C35.63023834 49.63369839 29.24659027 49.63803114 22.86275097 49.62445967 C19.60697933 49.61793385 16.35161611 49.6199762 13.09586334 49.63516617 C9.56253429 49.65058339 6.0300939 49.64133248 2.49678421 49.62590408 C0.96102015 49.64133477 0.96102015 49.64133477 -0.60576946 49.65707719 C-7.96177765 49.58610984 -13.33729528 48.06228358 -18.92403793 43.16658401 C-19.46286606 42.51560745 -20.00169418 41.86463089 -20.55685043 41.19392776 C-21.11114731 40.54552933 -21.66544418 39.89713089 -22.23653793 39.22908401 C-26.708118 32.73925024 -26.37984993 25.74910125 -25.68185043 18.13142776 C-23.72145 11.3071149 -19.18738051 6.52903822 -13.18185043 2.88142776 C-8.72116613 0.65108561 -4.94648334 0.00781352 0 0 Z " fill="#000000" transform="translate(129.6818504333496,278.8685722351074)"/>
<path d="M0 0 C1.59180845 -0.00339833 1.59180845 -0.00339833 3.21577466 -0.00686532 C6.77155656 -0.01319525 10.32730025 -0.0123766 13.88308716 -0.0115509 C16.43253631 -0.014543 18.98198501 -0.01794565 21.53143311 -0.02172852 C27.73766255 -0.02964901 33.94387799 -0.03278292 40.15011202 -0.03334089 C45.19566855 -0.03381646 50.24122195 -0.03587325 55.2867775 -0.03904152 C69.59856227 -0.04784518 83.91033956 -0.0524613 98.22212707 -0.05171105 C98.99325171 -0.05167109 99.76437635 -0.05163113 100.55886841 -0.05158997 C101.33093676 -0.05154909 102.1030051 -0.0515082 102.89846946 -0.05146609 C115.41189164 -0.0510596 127.92528373 -0.06063046 140.4386972 -0.07472833 C153.293949 -0.08909682 166.14918612 -0.09599827 179.00444615 -0.09513456 C186.2190809 -0.09480277 193.4336841 -0.09754184 200.64831161 -0.10831261 C207.43297259 -0.11837677 214.21755589 -0.11807743 221.00222397 -0.11079597 C223.49188331 -0.10974932 225.98154679 -0.1121178 228.47119904 -0.11815643 C231.87068914 -0.12586767 235.2699485 -0.1212371 238.66943359 -0.11352539 C239.6536847 -0.11866895 240.63793581 -0.12381252 241.65201271 -0.12911195 C250.70707917 -0.08374546 258.40834541 1.056179 265.09451294 7.77433777 C271.0519056 14.39366295 271.93285157 19.82883596 271.76638794 28.68840027 C271.07109841 36.55052032 267.41416025 40.68329981 261.55935669 45.68840027 C257.74228271 48.31841399 254.26703023 49.38299392 249.65211773 49.39098167 C248.70657927 49.39743057 247.76104082 49.40387946 246.78684968 49.41052377 C245.7563148 49.40742657 244.72577993 49.40432936 243.66401672 49.40113831 C242.01223662 49.40793498 242.01223662 49.40793498 240.32708722 49.41486895 C236.62997251 49.42754897 232.93300444 49.42589024 229.23587036 49.42424011 C226.58804271 49.43022311 223.94022661 49.43697136 221.29240417 49.44459534 C214.84205832 49.46120219 208.39174901 49.46670474 201.94138356 49.46782009 C196.69747727 49.46877074 191.45358303 49.47288188 186.20968056 49.47922134 C171.33860782 49.4968331 156.46756393 49.50606035 141.59648069 49.5045604 C140.39414069 49.50444053 140.39414069 49.50444053 139.16751099 49.50431824 C138.36497099 49.50423648 137.56243099 49.50415471 136.7355716 49.50407048 C123.73059299 49.50325765 110.72573021 49.52239453 97.7207851 49.55059497 C84.36383334 49.5793299 71.00693807 49.59313492 57.64995462 49.59140742 C50.1524579 49.59074371 42.65508261 49.59622736 35.15761375 49.61776352 C28.77378921 49.6359834 22.39014114 49.64031615 16.00630184 49.62674467 C12.7505302 49.62021885 9.49516698 49.6222612 6.23941422 49.63745117 C2.70608516 49.6528684 -0.82635523 49.64361749 -4.35966492 49.62818909 C-5.89542898 49.64361978 -5.89542898 49.64361978 -7.46221858 49.6593622 C-14.81822678 49.58839484 -20.19374441 48.06456859 -25.78048706 43.16886902 C-26.31931519 42.51789246 -26.85814331 41.86691589 -27.41329956 41.19621277 C-27.96759644 40.54781433 -28.52189331 39.89941589 -29.09298706 39.23136902 C-33.56456713 32.74153524 -33.23629905 25.75138626 -32.53829956 18.13371277 C-30.58444048 11.33217089 -26.06101793 6.55961837 -20.10079956 2.88371277 C-13.59570454 -0.3117725 -7.09867539 -0.01111852 0 0 Z " fill="#000000" transform="translate(136.53829956054688,94.86628723144531)"/>
<path d="M0 0 C1.2096981 -0.00445668 1.2096981 -0.00445668 2.44383454 -0.0090034 C5.14357685 -0.01766829 7.84327469 -0.01919678 10.54302979 -0.02069092 C12.4798797 -0.02532065 14.41672871 -0.03034552 16.35357666 -0.03573608 C21.61404734 -0.04884697 26.87450527 -0.05530246 32.13498974 -0.05974674 C35.4228018 -0.06267952 38.7106104 -0.06678472 41.99842072 -0.07125092 C52.28897007 -0.08492226 62.57951146 -0.09459075 72.87006927 -0.09845281 C84.74210571 -0.1029331 96.614027 -0.12048125 108.48602843 -0.1494534 C117.66751266 -0.17108064 126.84896452 -0.18115764 136.03047395 -0.18249393 C141.51199666 -0.18354118 146.99341106 -0.18943224 152.47490692 -0.20731354 C157.63281405 -0.22381222 162.79053167 -0.22594094 167.94845581 -0.21717453 C169.83782713 -0.21640513 171.72720872 -0.22073407 173.61655426 -0.23063278 C176.20357771 -0.24338815 178.7899335 -0.23745622 181.37695312 -0.22705078 C182.11773472 -0.23510719 182.85851631 -0.24316359 183.62174582 -0.25146413 C192.0884562 -0.17227253 199.09529125 2.3260406 205.2119751 8.21075439 C210.88168454 14.53318434 211.60532174 20.37117366 211.31744385 28.80059814 C210.44275562 36.59079014 206.87532752 40.70676401 201.0401001 45.69512939 C196.0710629 49.1188608 191.47448993 49.43124978 185.57444763 49.40786743 C184.73460825 49.41239854 183.89476886 49.41692966 183.0294798 49.42159808 C180.21680177 49.43425294 177.40431711 49.432621 174.59161377 49.43096924 C172.57432303 49.43695382 170.55703458 49.44375921 168.53974915 49.45132446 C163.06033174 49.46899916 157.5809768 49.47368048 152.10153365 49.47495604 C147.52654082 49.4768553 142.95156253 49.48421319 138.37657529 49.49130023 C127.58171083 49.50758751 116.78687973 49.51246888 105.99200439 49.51104736 C94.85901656 49.50984595 83.7262226 49.53094708 72.59328383 49.56253469 C63.03304291 49.5886928 53.47286533 49.59941484 43.91258889 49.59813654 C38.20359599 49.59762676 32.49477534 49.60331919 26.7858181 49.62449265 C21.41528238 49.64386696 16.04508339 49.64400484 10.67453575 49.62945938 C8.70572925 49.62736917 6.73690171 49.63208479 4.76813126 49.6441803 C2.07549012 49.65964885 -0.61599229 49.65031418 -3.30860901 49.63491821 C-4.08343103 49.64520534 -4.85825305 49.65549247 -5.65655452 49.66609132 C-12.20790141 49.58359598 -17.36063843 47.50376875 -22.29974365 43.17559814 C-22.83857178 42.52462158 -23.3773999 41.87364502 -23.93255615 41.20294189 C-24.48685303 40.55454346 -25.0411499 39.90614502 -25.61224365 39.23809814 C-30.08382372 32.74826437 -29.75555565 25.75811538 -29.05755615 18.14044189 C-27.09715572 11.31612903 -22.56308623 6.53805235 -16.55755615 2.89044189 C-11.04395452 0.13364108 -6.08291067 -0.00703042 0 0 Z " fill="#000000" transform="translate(133.05755615234375,366.85955810546875)"/>
<path d="M0 0 C1.2096981 -0.00445668 1.2096981 -0.00445668 2.44383454 -0.0090034 C5.14357685 -0.01766829 7.84327469 -0.01919678 10.54302979 -0.02069092 C12.4798797 -0.02532065 14.41672871 -0.03034552 16.35357666 -0.03573608 C21.61404734 -0.04884697 26.87450527 -0.05530246 32.13498974 -0.05974674 C35.4228018 -0.06267952 38.7106104 -0.06678472 41.99842072 -0.07125092 C52.28897007 -0.08492226 62.57951146 -0.09459075 72.87006927 -0.09845281 C84.74210571 -0.1029331 96.614027 -0.12048125 108.48602843 -0.1494534 C117.66751266 -0.17108064 126.84896452 -0.18115764 136.03047395 -0.18249393 C141.51199666 -0.18354118 146.99341106 -0.18943224 152.47490692 -0.20731354 C157.63281405 -0.22381222 162.79053167 -0.22594094 167.94845581 -0.21717453 C169.83782713 -0.21640513 171.72720872 -0.22073407 173.61655426 -0.23063278 C176.20357771 -0.24338815 178.7899335 -0.23745622 181.37695312 -0.22705078 C182.11773472 -0.23510719 182.85851631 -0.24316359 183.62174582 -0.25146413 C192.0884562 -0.17227253 199.09529125 2.3260406 205.2119751 8.21075439 C210.88168454 14.53318434 211.60532174 20.37117366 211.31744385 28.80059814 C210.44275562 36.59079014 206.87532752 40.70676401 201.0401001 45.69512939 C196.0710629 49.1188608 191.47448993 49.43124978 185.57444763 49.40786743 C184.73460825 49.41239854 183.89476886 49.41692966 183.0294798 49.42159808 C180.21680177 49.43425294 177.40431711 49.432621 174.59161377 49.43096924 C172.57432303 49.43695382 170.55703458 49.44375921 168.53974915 49.45132446 C163.06033174 49.46899916 157.5809768 49.47368048 152.10153365 49.47495604 C147.52654082 49.4768553 142.95156253 49.48421319 138.37657529 49.49130023 C127.58171083 49.50758751 116.78687973 49.51246888 105.99200439 49.51104736 C94.85901656 49.50984595 83.7262226 49.53094708 72.59328383 49.56253469 C63.03304291 49.5886928 53.47286533 49.59941484 43.91258889 49.59813654 C38.20359599 49.59762676 32.49477534 49.60331919 26.7858181 49.62449265 C21.41528238 49.64386696 16.04508339 49.64400484 10.67453575 49.62945938 C8.70572925 49.62736917 6.73690171 49.63208479 4.76813126 49.6441803 C2.07549012 49.65964885 -0.61599229 49.65031418 -3.30860901 49.63491821 C-4.08343103 49.64520534 -4.85825305 49.65549247 -5.65655452 49.66609132 C-12.20790141 49.58359598 -17.36063843 47.50376875 -22.29974365 43.17559814 C-22.83857178 42.52462158 -23.3773999 41.87364502 -23.93255615 41.20294189 C-24.48685303 40.55454346 -25.0411499 39.90614502 -25.61224365 39.23809814 C-30.08382372 32.74826437 -29.75555565 25.75811538 -29.05755615 18.14044189 C-27.09715572 11.31612903 -22.56308623 6.53805235 -16.55755615 2.89044189 C-11.04395452 0.13364108 -6.08291067 -0.00703042 0 0 Z " fill="#000000" transform="translate(133.05755615234375,182.85955810546875)"/>
</svg>
